<?xml version="1.0" encoding="UTF-8" standalone="no"?>
<!-- Created with Inkscape (http://www.inkscape.org/) -->
<svg
   xmlns:svg="http://www.w3.org/2000/svg"
   xmlns="http://www.w3.org/2000/svg"
   xmlns:inkscape="http://www.inkscape.org/namespaces/inkscape"
   version="1.0"
   width="744.09448"
   height="800"
   id="svg2">
  <defs
     id="defs4">
    <clipPath
       id="clipPath">
      <path
         d="M 259.13405,148.61559 L 269.55485,147.53548 C 270.04836,152.48601 271.19673,156.54767 272.99998,159.72046 C 274.8032,162.89331 277.60296,165.45857 281.39927,167.41624 C 285.19553,169.37395 289.46634,170.35281 294.21174,170.35279 C 298.42557,170.35281 302.14593,169.61023 305.37283,168.12506 C 308.59961,166.63993 311.00077,164.60348 312.57628,162.0157 C 314.15168,159.42796 314.93941,156.60392 314.93946,153.54359 C 314.93941,150.43831 314.18015,147.72678 312.66169,145.40902 C 311.14312,143.09132 308.63758,141.14488 305.14504,139.56968 C 302.90519,138.53462 297.95104,136.92571 290.28258,134.74294 C 282.61406,132.56027 277.24232,130.50131 274.16735,128.56606 C 270.18122,126.09087 267.21063,123.01931 265.25556,119.35138 C 263.30046,115.68357 262.32292,111.57692 262.32293,107.03139 C 262.32292,102.03596 263.51875,97.366738 265.91041,93.023716 C 268.30206,88.680869 271.79465,85.384288 276.38817,83.133965 C 280.98165,80.883837 286.08766,79.758724 291.70619,79.758624 C 297.8941,79.758724 303.35125,80.940092 308.07768,83.302733 C 312.804,85.665566 316.43894,89.142165 318.98252,93.732538 C 321.52595,98.323085 322.89262,103.5211 323.0825,109.32661 L 312.49086,110.27172 C 311.92137,104.01616 309.99475,99.290682 306.71101,96.095277 C 303.42718,92.900041 298.57743,91.302381 292.16175,91.302293 C 285.48025,91.302381 280.61152,92.753777 277.55553,95.656483 C 274.4995,98.559358 272.97149,102.05846 272.97151,106.15379 C 272.97149,109.70923 274.05343,112.63452 276.21734,114.92968 C 278.34323,117.22498 283.8953,119.57646 292.87355,121.98415 C 301.85171,124.39195 308.01119,126.4959 311.35198,128.29604 C 316.21117,130.95136 319.79865,134.31544 322.11445,138.3883 C 324.43011,142.46126 325.58798,147.15298 325.58805,152.46348 C 325.58798,157.72903 324.31622,162.69078 321.77279,167.34874 C 319.22921,172.00672 315.57528,175.62958 310.81101,178.21734 C 306.04661,180.8051 300.68436,182.09898 294.72424,182.09898 C 287.16959,182.09898 280.83929,180.79385 275.73331,178.18359 C 270.62729,175.57333 266.62221,171.64668 263.71806,166.40365 C 260.81389,161.16063 259.28589,155.23129 259.13405,148.61559 L 259.13405,148.61559 z M 341.01996,180.41131 L 341.01996,81.446295 L 401.38093,81.446295 L 401.38093,93.124977 L 352.06715,93.124977 L 352.06715,123.43554 L 398.24899,123.43554 L 398.24899,135.04672 L 352.06715,135.04672 L 352.06715,168.73263 L 403.31703,168.73263 L 403.31703,180.41131 L 341.01996,180.41131 z M 418.86283,180.41131 L 418.86283,81.446295 L 455.87663,81.446295 C 463.3173,81.446394 468.97376,82.335233 472.84603,84.112814 C 476.71818,85.890589 479.81215,89.029653 482.12795,93.530017 C 484.44361,98.030556 485.60148,103.00355 485.60155,108.44903 C 485.60148,115.46981 483.68435,121.3879 479.85018,126.20332 C 476.01587,131.01886 470.09367,134.07917 462.08356,135.38426 C 465.00664,137.04946 467.22747,138.69214 468.74604,140.31225 C 471.97282,143.82264 475.02884,148.21058 477.91407,153.47609 L 492.43487,180.41131 L 478.54046,180.41131 L 467.49327,159.82172 C 464.26637,153.88116 461.60897,149.33569 459.52106,146.18534 C 457.43306,143.03507 455.56339,140.82984 453.91205,139.56968 C 452.26063,138.3096 450.58077,137.432 448.87248,136.93691 C 447.61967,136.62192 445.56967,136.4644 442.7225,136.46436 L 429.91002,136.46436 L 429.91002,180.41131 L 418.86283,180.41131 z M 429.91002,125.12322 L 453.6558,125.12322 C 458.70481,125.12327 462.65294,124.50445 465.50021,123.26678 C 468.34737,122.02921 470.51125,120.04901 471.99186,117.32618 C 473.47235,114.60347 474.21263,111.64442 474.21269,108.44903 C 474.21263,103.76863 472.77954,99.920744 469.9134,96.905359 C 467.04714,93.890141 462.52008,92.382489 456.33219,92.382401 L 429.91002,92.382401 L 429.91002,125.12322 z M 504.84875,180.41131 L 504.84875,81.446295 L 515.89595,81.446295 L 515.89595,180.41131 L 504.84875,180.41131 z"
         id="text2391"
         style="font-size:126.97814178px;font-style:normal;font-weight:normal;text-align:center;text-anchor:middle;fill:#0000fd;fill-opacity:1;stroke:none;stroke-width:1px;stroke-linecap:butt;stroke-linejoin:miter;stroke-opacity:1;font-family:Bitstream Vera Sans" />
    </clipPath>
    <filter
       id="filter"
       height="2"
       width="2"
       x="-0.5"
       y="-0.5">
      <feGaussianBlur
         stdDeviation="5.0"
         id="feGaussianBlur3184" />
    </filter>
    <filter
       id="filter5727">
      <feGaussianBlur
         id="feGaussianBlur5729"
         stdDeviation="0.99638119"
         inkscape:collect="always" />
    </filter>
  </defs>
  <g
     id="layer1">
    <flowRoot
       id="flowRoot2383"
       xml:space="preserve"
       style="font-size:40px;font-style:normal;font-weight:normal;fill:#000000;fill-opacity:1;stroke:none;stroke-width:1px;stroke-linecap:butt;stroke-linejoin:miter;stroke-opacity:1;font-family:Bitstream Vera Sans"><flowRegion
         id="flowRegion2385"><rect
           width="543.4621"
           height="93.944183"
           x="93.944183"
           y="77.56498"
           id="rect2387" /></flowRegion><flowPara
         id="flowPara2389" /></flowRoot>    <path
       d="M 225.79902,224.37703 L 236.21982,223.29692 C 236.71333,228.24745 237.8617,232.30911 239.66495,235.4819 C 241.46817,238.65475 244.26793,241.22001 248.06424,243.17768 C 251.8605,245.13539 256.13131,246.11425 260.87671,246.11423 C 265.09054,246.11425 268.8109,245.37167 272.0378,243.8865 C 275.26458,242.40137 277.66574,240.36492 279.24125,237.77714 C 280.81665,235.1894 281.60438,232.36536 281.60443,229.30503 C 281.60438,226.19975 280.84512,223.48822 279.32666,221.17046 C 277.80809,218.85276 275.30255,216.90632 271.81001,215.33112 C 269.57016,214.29606 264.61601,212.68715 256.94755,210.50438 C 249.27903,208.32171 243.90729,206.26275 240.83232,204.3275 C 236.84619,201.85231 233.8756,198.78075 231.92053,195.11282 C 229.96543,191.44501 228.98789,187.33836 228.9879,182.79283 C 228.98789,177.7974 230.18372,173.12818 232.57538,168.78516 C 234.96703,164.44231 238.45962,161.14573 243.05314,158.89541 C 247.64662,156.64528 252.75263,155.52016 258.37116,155.52006 C 264.55907,155.52016 270.01622,156.70153 274.74265,159.06417 C 279.46897,161.42701 283.10391,164.90361 285.64749,169.49398 C 288.19092,174.08453 289.55759,179.28254 289.74747,185.08805 L 279.15583,186.03316 C 278.58634,179.7776 276.65972,175.05212 273.37598,171.85672 C 270.09215,168.66148 265.2424,167.06382 258.82672,167.06373 C 252.14522,167.06382 247.27649,168.51522 244.2205,171.41792 C 241.16447,174.3208 239.63646,177.8199 239.63648,181.91523 C 239.63646,185.47067 240.7184,188.39596 242.88231,190.69112 C 245.0082,192.98642 250.56027,195.3379 259.53852,197.74559 C 268.51668,200.15339 274.67616,202.25734 278.01695,204.05748 C 282.87614,206.7128 286.46362,210.07688 288.77942,214.14974 C 291.09508,218.2227 292.25295,222.91442 292.25302,228.22492 C 292.25295,233.49047 290.98119,238.45222 288.43776,243.11018 C 285.89418,247.76816 282.24025,251.39102 277.47598,253.97878 C 272.71158,256.56654 267.34933,257.86042 261.38921,257.86042 C 253.83456,257.86042 247.50426,256.55529 242.39828,253.94503 C 237.29226,251.33477 233.28718,247.40812 230.38303,242.16509 C 227.47886,236.92207 225.95086,230.99273 225.79902,224.37703 L 225.79902,224.37703 z M 307.68493,256.17275 L 307.68493,157.20774 L 368.0459,157.20774 L 368.0459,168.88642 L 318.73212,168.88642 L 318.73212,199.19698 L 364.91396,199.19698 L 364.91396,210.80816 L 318.73212,210.80816 L 318.73212,244.49407 L 369.982,244.49407 L 369.982,256.17275 L 307.68493,256.17275 z M 385.5278,256.17275 L 385.5278,157.20774 L 422.5416,157.20774 C 429.98227,157.20783 435.63873,158.09667 439.511,159.87425 C 443.38315,161.65203 446.47712,164.79109 448.79292,169.29146 C 451.10858,173.792 452.26645,178.76499 452.26652,184.21047 C 452.26645,191.23125 450.34932,197.14934 446.51515,201.96476 C 442.68084,206.7803 436.75864,209.84061 428.74853,211.1457 C 431.67161,212.8109 433.89244,214.45358 435.41101,216.07369 C 438.63779,219.58408 441.69381,223.97202 444.57904,229.23753 L 459.09984,256.17275 L 445.20543,256.17275 L 434.15824,235.58316 C 430.93134,229.6426 428.27394,225.09713 426.18603,221.94678 C 424.09803,218.79651 422.22836,216.59128 420.57702,215.33112 C 418.9256,214.07104 417.24574,213.19344 415.53745,212.69835 C 414.28464,212.38336 412.23464,212.22584 409.38747,212.2258 L 396.57499,212.2258 L 396.57499,256.17275 L 385.5278,256.17275 z M 396.57499,200.88466 L 420.32077,200.88466 C 425.36978,200.88471 429.31791,200.26589 432.16518,199.02822 C 435.01234,197.79065 437.17622,195.81045 438.65683,193.08762 C 440.13732,190.36491 440.8776,187.40586 440.87766,184.21047 C 440.8776,179.53007 439.44451,175.68218 436.57837,172.6668 C 433.71211,169.65158 429.18505,168.14393 422.99716,168.14384 L 396.57499,168.14384 L 396.57499,200.88466 z M 471.51372,256.17275 L 471.51372,157.20774 L 482.56092,157.20774 L 482.56092,256.17275 L 471.51372,256.17275 z"
       id="path3193"
       style="font-size:126.97814178px;font-style:normal;font-weight:normal;text-align:center;text-anchor:middle;fill:#0000fd;fill-opacity:1;stroke:none;stroke-width:1px;stroke-linecap:butt;stroke-linejoin:miter;stroke-opacity:1;font-family:Bitstream Vera Sans" />
    <flowRoot
       id="flowRoot3170"
       xml:space="preserve"
       style="font-size:40px;font-style:normal;font-weight:normal;fill:#000000;fill-opacity:1;stroke:none;stroke-width:1px;stroke-linecap:butt;stroke-linejoin:miter;stroke-opacity:1;font-family:Bitstream Vera Sans"><flowRegion
         id="flowRegion3172"><rect
           width="166.67517"
           height="201.02036"
           x="354.56354"
           y="135.14368"
           id="rect3174" /></flowRegion><flowPara
         id="flowPara3176" /></flowRoot>    <g
       transform="translate(-33.335034,73.741136)"
       clip-path="url(#clipPath)"
       id="g3199">
      <g
         transform="translate(34.345187,41.416254)"
         id="g3201">
        <path
           d="M 259.13405,148.61559 L 269.55485,147.53548 M 269.55485,147.53548 C 270.04836,152.48601 271.19673,156.54767 272.99998,159.72046 M 272.99998,159.72046 C 274.8032,162.89331 277.60296,165.45857 281.39927,167.41624 M 281.39927,167.41624 C 285.19553,169.37395 289.46634,170.35281 294.21174,170.35279 M 294.21174,170.35279 C 298.42557,170.35281 302.14593,169.61023 305.37283,168.12506 M 305.37283,168.12506 C 308.59961,166.63993 311.00077,164.60348 312.57628,162.0157 M 265.91041,93.023716 C 268.30206,88.680869 271.79465,85.384288 276.38817,83.133965 M 276.38817,83.133965 C 280.98165,80.883837 286.08766,79.758724 291.70619,79.758624 M 291.70619,79.758624 C 297.8941,79.758724 303.35125,80.940092 308.07768,83.302733 M 308.07768,83.302733 C 312.804,85.665566 316.43894,89.142165 318.98252,93.732538 M 318.98252,93.732538 C 321.52595,98.323085 322.89262,103.5211 323.0825,109.32661 M 277.55553,95.656483 C 274.4995,98.559358 272.97149,102.05846 272.97151,106.15379 M 272.97151,106.15379 C 272.97149,109.70923 274.05343,112.63452 276.21734,114.92968 M 276.21734,114.92968 C 278.34323,117.22498 283.8953,119.57646 292.87355,121.98415 M 292.87355,121.98415 C 301.85171,124.39195 308.01119,126.4959 311.35198,128.29604 M 311.35198,128.29604 C 316.21117,130.95136 319.79865,134.31544 322.11445,138.3883 M 322.11445,138.3883 C 324.43011,142.46126 325.58798,147.15298 325.58805,152.46348 M 325.58805,152.46348 C 325.58798,157.72903 324.31622,162.69078 321.77279,167.34874 M 259.13405,148.61559 L 259.13405,148.61559 M 341.01996,81.446295 L 401.38093,81.446295 M 401.38093,81.446295 L 401.38093,93.124977 M 352.06715,93.124977 L 352.06715,123.43554 M 352.06715,123.43554 L 398.24899,123.43554 M 398.24899,123.43554 L 398.24899,135.04672 M 352.06715,135.04672 L 352.06715,168.73263 M 352.06715,168.73263 L 403.31703,168.73263 M 403.31703,168.73263 L 403.31703,180.41131 M 418.86283,81.446295 L 455.87663,81.446295 M 455.87663,81.446295 C 463.3173,81.446394 468.97376,82.335233 472.84603,84.112814 M 472.84603,84.112814 C 476.71818,85.890589 479.81215,89.029653 482.12795,93.530017 M 482.12795,93.530017 C 484.44361,98.030556 485.60148,103.00355 485.60155,108.44903 M 485.60155,108.44903 C 485.60148,115.46981 483.68435,121.3879 479.85018,126.20332 M 462.08356,135.38426 C 465.00664,137.04946 467.22747,138.69214 468.74604,140.31225 M 468.74604,140.31225 C 471.97282,143.82264 475.02884,148.21058 477.91407,153.47609 M 477.91407,153.47609 L 492.43487,180.41131 M 429.91002,136.46436 L 429.91002,180.41131 M 429.91002,125.12322 L 453.6558,125.12322 M 453.6558,125.12322 C 458.70481,125.12327 462.65294,124.50445 465.50021,123.26678 M 465.50021,123.26678 C 468.34737,122.02921 470.51125,120.04901 471.99186,117.32618 M 429.91002,92.382401 L 429.91002,125.12322 M 504.84875,81.446295 L 515.89595,81.446295 M 515.89595,81.446295 L 515.89595,180.41131"
           id="path3203"
           style="fill:none;stroke:#ffffff;stroke-width:10;stroke-opacity:1;filter:url(#filter)" />
        <path
           d="M 312.57628,162.0157 C 314.15168,159.42796 314.93941,156.60392 314.93946,153.54359 M 314.93946,153.54359 C 314.93941,150.43831 314.18015,147.72678 312.66169,145.40902 M 312.66169,145.40902 C 311.14312,143.09132 308.63758,141.14488 305.14504,139.56968 M 305.14504,139.56968 C 302.90519,138.53462 297.95104,136.92571 290.28258,134.74294 M 290.28258,134.74294 C 282.61406,132.56027 277.24232,130.50131 274.16735,128.56606 M 274.16735,128.56606 C 270.18122,126.09087 267.21063,123.01931 265.25556,119.35138 M 265.25556,119.35138 C 263.30046,115.68357 262.32292,111.57692 262.32293,107.03139 M 262.32293,107.03139 C 262.32292,102.03596 263.51875,97.366738 265.91041,93.023716 M 323.0825,109.32661 L 312.49086,110.27172 M 312.49086,110.27172 C 311.92137,104.01616 309.99475,99.290682 306.71101,96.095277 M 306.71101,96.095277 C 303.42718,92.900041 298.57743,91.302381 292.16175,91.302293 M 292.16175,91.302293 C 285.48025,91.302381 280.61152,92.753777 277.55553,95.656483 M 321.77279,167.34874 C 319.22921,172.00672 315.57528,175.62958 310.81101,178.21734 M 310.81101,178.21734 C 306.04661,180.8051 300.68436,182.09898 294.72424,182.09898 M 294.72424,182.09898 C 287.16959,182.09898 280.83929,180.79385 275.73331,178.18359 M 275.73331,178.18359 C 270.62729,175.57333 266.62221,171.64668 263.71806,166.40365 M 263.71806,166.40365 C 260.81389,161.16063 259.28589,155.23129 259.13405,148.61559 M 341.01996,180.41131 L 341.01996,81.446295 M 401.38093,93.124977 L 352.06715,93.124977 M 398.24899,135.04672 L 352.06715,135.04672 M 403.31703,180.41131 L 341.01996,180.41131 M 418.86283,180.41131 L 418.86283,81.446295 M 479.85018,126.20332 C 476.01587,131.01886 470.09367,134.07917 462.08356,135.38426 M 492.43487,180.41131 L 478.54046,180.41131 M 478.54046,180.41131 L 467.49327,159.82172 M 467.49327,159.82172 C 464.26637,153.88116 461.60897,149.33569 459.52106,146.18534 M 459.52106,146.18534 C 457.43306,143.03507 455.56339,140.82984 453.91205,139.56968 M 453.91205,139.56968 C 452.26063,138.3096 450.58077,137.432 448.87248,136.93691 M 448.87248,136.93691 C 447.61967,136.62192 445.56967,136.4644 442.7225,136.46436 M 442.7225,136.46436 L 429.91002,136.46436 M 429.91002,180.41131 L 418.86283,180.41131 M 471.99186,117.32618 C 473.47235,114.60347 474.21263,111.64442 474.21269,108.44903 M 474.21269,108.44903 C 474.21263,103.76863 472.77954,99.920744 469.9134,96.905359 M 469.9134,96.905359 C 467.04714,93.890141 462.52008,92.382489 456.33219,92.382401 M 456.33219,92.382401 L 429.91002,92.382401 M 504.84875,180.41131 L 504.84875,81.446295 M 515.89595,180.41131 L 504.84875,180.41131"
           id="path3205"
           style="fill:none;stroke:#000000;stroke-width:10;stroke-opacity:1;filter:url(#filter)" />
      </g>
    </g>
    <flowRoot
       transform="matrix(1.5989708,0,0,4.0877004,-110.19909,-910.05129)"
       id="flowRoot3292"
       xml:space="preserve"
       style="font-size:40px;font-style:normal;font-weight:normal;fill:#000000;fill-opacity:1;stroke:none;stroke-width:1px;stroke-linecap:butt;stroke-linejoin:miter;stroke-opacity:1;font-family:Bitstream Vera Sans"><flowRegion
         id="flowRegion3294"><rect
           width="284.45517"
           height="16.245102"
           x="154.55334"
           y="288.68686"
           id="rect3296" /></flowRegion><flowPara
         id="flowPara3298"
         style="font-size:14px">Sistema Educativo Referente a la Informatica</flowPara><flowPara
         id="flowPara3312" /><flowPara
         id="flowPara3314" /></flowRoot>    <text
       x="493.9646"
       y="313.94067"
       id="text3308"
       xml:space="preserve"
       style="font-size:40px;font-style:normal;font-weight:normal;fill:#000000;fill-opacity:1;stroke:none;stroke-width:1px;stroke-linecap:butt;stroke-linejoin:miter;stroke-opacity:1;font-family:Bitstream Vera Sans"><tspan
         x="493.9646"
         y="313.94067"
         id="tspan3310"> </tspan></text>
    <flowRoot
       id="flowRoot3316"
       xml:space="preserve"
       style="font-size:40px;font-style:normal;font-weight:normal;fill:#000000;fill-opacity:1;stroke:none;stroke-width:1px;stroke-linecap:butt;stroke-linejoin:miter;stroke-opacity:1;font-family:Bitstream Vera Sans"><flowRegion
         id="flowRegion3318"><rect
           width="209.10158"
           height="74.751289"
           x="53.538086"
           y="311.92038"
           id="rect3320" /></flowRegion><flowPara
         id="flowPara3322" /></flowRoot>    <flowRoot
       id="flowRoot3324"
       xml:space="preserve"
       style="font-size:40px;font-style:normal;font-weight:normal;fill:#000000;fill-opacity:1;stroke:none;stroke-width:1px;stroke-linecap:butt;stroke-linejoin:miter;stroke-opacity:1;font-family:Bitstream Vera Sans"><flowRegion
         id="flowRegion3326"><rect
           width="224.25386"
           height="67.680222"
           x="38.385796"
           y="317.98129"
           id="rect3328" /></flowRegion><flowPara
         id="flowPara3330" /></flowRoot>    <flowRoot
       transform="translate(94.954339,0)"
       id="flowRoot5287"
       xml:space="preserve"
       style="font-size:72px;font-style:normal;font-weight:normal;opacity:0.99233716;fill:#0062a0;fill-opacity:0.92857139;stroke:none;stroke-width:1px;stroke-linecap:butt;stroke-linejoin:miter;stroke-opacity:1;filter:url(#filter5727);font-family:Bitstream Vera Sans"><flowRegion
         id="flowRegion5289"><rect
           width="668.72101"
           height="92.934036"
           x="54.548237"
           y="23.016739"
           id="rect5291"
           style="font-size:72px;fill:#0062a0;fill-opacity:0.92857139" /></flowRegion><flowPara
         id="flowPara5293">! <flowSpan
   id="flowSpan5297"
   style="font-size:72px;fill:#0062a0;fill-opacity:0.92857139">Bienvenidos </flowSpan>ยก</flowPara></flowRoot>  </g>
</svg>
